<mxfile host="65bd71144e">
    <diagram id="yIFp_zIiqKtSNtJN4kel" name="Overview">
        <mxGraphModel dx="1052" dy="469" grid="1" gridSize="10" guides="1" tooltips="1" connect="1" arrows="1" fold="1" page="1" pageScale="1" pageWidth="850" pageHeight="1100" math="0" shadow="0">
            <root>
                <mxCell id="0"/>
                <mxCell id="1" parent="0"/>
                <mxCell id="DA4xsmu6hejco21MlKTN-17" style="edgeStyle=none;html=1;exitX=0;exitY=0.5;exitDx=0;exitDy=0;entryX=1;entryY=0.5;entryDx=0;entryDy=0;" edge="1" parent="1" source="2" target="5">
                    <mxGeometry relative="1" as="geometry"/>
                </mxCell>
                <mxCell id="5" value="Visualizer" style="rounded=0;whiteSpace=wrap;html=1;" vertex="1" parent="1">
                    <mxGeometry x="80" y="160" width="120" height="40" as="geometry"/>
                </mxCell>
                <mxCell id="DA4xsmu6hejco21MlKTN-16" style="edgeStyle=none;html=1;exitX=1;exitY=0;exitDx=0;exitDy=0;entryX=0;entryY=0.5;entryDx=0;entryDy=0;" edge="1" parent="1" source="6" target="7">
                    <mxGeometry relative="1" as="geometry"/>
                </mxCell>
                <mxCell id="DA4xsmu6hejco21MlKTN-18" style="edgeStyle=none;html=1;exitX=1;exitY=0.75;exitDx=0;exitDy=0;entryX=0.095;entryY=-0.035;entryDx=0;entryDy=0;entryPerimeter=0;" edge="1" parent="1" source="6" target="8">
                    <mxGeometry relative="1" as="geometry"/>
                </mxCell>
                <mxCell id="7" value="Telemtry" style="rounded=0;whiteSpace=wrap;html=1;" vertex="1" parent="1">
                    <mxGeometry x="640" y="80" width="120" height="40" as="geometry"/>
                </mxCell>
                <mxCell id="8" value="Operation Module" style="rounded=0;whiteSpace=wrap;html=1;" vertex="1" parent="1">
                    <mxGeometry x="640" y="240" width="120" height="40" as="geometry"/>
                </mxCell>
                <mxCell id="DA4xsmu6hejco21MlKTN-19" style="edgeStyle=none;html=1;exitX=0;exitY=0.25;exitDx=0;exitDy=0;entryX=0.897;entryY=1.023;entryDx=0;entryDy=0;entryPerimeter=0;" edge="1" parent="1" source="8" target="6">
                    <mxGeometry relative="1" as="geometry"/>
                </mxCell>
                <mxCell id="2CU2-WublhE32YEgpXBA-16" value="Entity" style="swimlane;whiteSpace=wrap;html=1;dashed=1;" vertex="1" parent="1">
                    <mxGeometry x="240" y="40" width="360" height="280" as="geometry"/>
                </mxCell>
                <mxCell id="3" value="Sensor Emulator" style="rounded=0;whiteSpace=wrap;html=1;" vertex="1" parent="2CU2-WublhE32YEgpXBA-16">
                    <mxGeometry x="40" y="40" width="120" height="40" as="geometry"/>
                </mxCell>
                <UserObject label="Kinematics" link="data:page/id,XpWGLByWsDXXl8jKG343" id="2">
                    <mxCell style="rounded=0;whiteSpace=wrap;html=1;" vertex="1" parent="2CU2-WublhE32YEgpXBA-16">
                        <mxGeometry x="40" y="120" width="120" height="40" as="geometry"/>
                    </mxCell>
                </UserObject>
                <mxCell id="9" style="edgeStyle=none;html=1;exitX=0.5;exitY=0;exitDx=0;exitDy=0;entryX=0.5;entryY=1;entryDx=0;entryDy=0;" edge="1" parent="2CU2-WublhE32YEgpXBA-16" source="2" target="3">
                    <mxGeometry relative="1" as="geometry"/>
                </mxCell>
                <mxCell id="4" value="Actuator Emulator" style="rounded=0;whiteSpace=wrap;html=1;" vertex="1" parent="2CU2-WublhE32YEgpXBA-16">
                    <mxGeometry x="40" y="200" width="120" height="40" as="geometry"/>
                </mxCell>
                <mxCell id="10" style="edgeStyle=none;html=1;exitX=0.5;exitY=0;exitDx=0;exitDy=0;entryX=0.5;entryY=1;entryDx=0;entryDy=0;shadow=0;" edge="1" parent="2CU2-WublhE32YEgpXBA-16" source="4" target="2">
                    <mxGeometry relative="1" as="geometry">
                        <Array as="points"/>
                    </mxGeometry>
                </mxCell>
                <mxCell id="6" value="Computer Module" style="rounded=0;whiteSpace=wrap;html=1;" vertex="1" parent="2CU2-WublhE32YEgpXBA-16">
                    <mxGeometry x="210" y="120" width="110" height="40" as="geometry"/>
                </mxCell>
                <mxCell id="DA4xsmu6hejco21MlKTN-10" style="edgeStyle=none;html=1;exitX=1;exitY=0.5;exitDx=0;exitDy=0;entryX=0;entryY=0;entryDx=0;entryDy=0;" edge="1" parent="2CU2-WublhE32YEgpXBA-16" source="3" target="6">
                    <mxGeometry relative="1" as="geometry"/>
                </mxCell>
                <mxCell id="DA4xsmu6hejco21MlKTN-14" style="edgeStyle=none;html=1;entryX=1;entryY=0.5;entryDx=0;entryDy=0;exitX=0;exitY=1;exitDx=0;exitDy=0;" edge="1" parent="2CU2-WublhE32YEgpXBA-16" source="6" target="4">
                    <mxGeometry relative="1" as="geometry">
                        <mxPoint x="290" y="192" as="sourcePoint"/>
                    </mxGeometry>
                </mxCell>
            </root>
        </mxGraphModel>
    </diagram>
    <diagram id="XpWGLByWsDXXl8jKG343" name="Kinematics">
        <mxGraphModel dx="1052" dy="469" grid="1" gridSize="10" guides="1" tooltips="1" connect="1" arrows="1" fold="1" page="1" pageScale="1" pageWidth="850" pageHeight="1100" math="0" shadow="0">
            <root>
                <mxCell id="0"/>
                <mxCell id="1" parent="0"/>
            </root>
        </mxGraphModel>
    </diagram>
</mxfile>